<?xml version="1.0" encoding="utf-8"?>
<!-- Generator: Adobe Illustrator 18.1.1, SVG Export Plug-In . SVG Version: 6.00 Build 0)  -->
<svg version="1.1" id="Layer_1" xmlns="http://www.w3.org/2000/svg" xmlns:xlink="http://www.w3.org/1999/xlink" x="0px" y="0px"
	 viewBox="0 0 29.2 30.5" enable-background="new 0 0 29.2 30.5" xml:space="preserve">
<g>
	<g>
		<path fill="#BC6A46" d="M10,3.3c0.1,0.3,0.3,0.6,0.5,1c1.4,3.4,10,10.1,9.2,17.8c-0.6,3.8-2.7,6.4-6.3,7.8
			c-6,2.3-12.2-1.5-13.4-7.4C-0.9,13.6,8.7,5.4,10,3.3z"/>
		<path fill="#BC6A46" d="M23.9,0c0.1,0.1,0.2,0.3,0.2,0.5c0.8,1.8,5.4,5.5,5,9.6c-0.3,2-1.5,3.5-3.4,4.2c-3.2,1.3-6.6-0.8-7.2-4
			C18,5.5,23.2,1.1,23.9,0z"/>
	</g>
	<g>
		<path fill="#FFFFFF" d="M10.4,27.8c0,0,0.1-0.1,0.4-0.2c0.1-0.1,0.3-0.2,0.4-0.2c0.2-0.1,0.3-0.2,0.5-0.3c0.2-0.1,0.4-0.3,0.6-0.4
			c0.2-0.1,0.4-0.3,0.6-0.5c0.4-0.4,0.8-0.8,1.2-1.2c0.8-0.8,1.6-1.7,2.2-2.4c0.1-0.2,0.3-0.3,0.4-0.5c0.1-0.2,0.2-0.3,0.3-0.4
			c0.1-0.2,0.2-0.4,0.2-0.4s0,0.2,0,0.5c0,0.3-0.1,0.7-0.2,1.2c-0.2,0.5-0.4,1-0.7,1.5c-0.3,0.5-0.7,1-1.2,1.5
			c-0.9,0.9-2.1,1.6-3.1,1.8c-0.5,0.1-1,0.1-1.2,0.1C10.5,27.8,10.4,27.8,10.4,27.8z"/>
	</g>
	<g>
		<path fill="#FFFFFF" d="M23.8,13.1c0,0,0.1,0,0.2-0.1c0.2,0,0.3-0.1,0.5-0.3c0.4-0.2,0.9-0.6,1.4-1c0.5-0.4,1-0.8,1.3-1.1
			c0.2-0.2,0.3-0.3,0.4-0.4c0.1-0.1,0.1-0.2,0.1-0.2s0,0.1,0,0.2c0,0.1-0.1,0.4-0.2,0.6c-0.2,0.5-0.7,1.1-1.2,1.5
			c-0.6,0.4-1.2,0.7-1.8,0.8c-0.3,0-0.5,0-0.7,0C23.9,13.1,23.8,13.1,23.8,13.1z"/>
	</g>
</g>
</svg>
