<?xml version="1.0" encoding="utf-8"?>
<!-- Generator: Adobe Illustrator 18.1.1, SVG Export Plug-In . SVG Version: 6.00 Build 0)  -->
<svg version="1.1" id="Layer_1" xmlns="http://www.w3.org/2000/svg" xmlns:xlink="http://www.w3.org/1999/xlink" x="0px" y="0px"
	 viewBox="-36 0 648 792" enable-background="new -36 0 648 792" xml:space="preserve">
<g>
	<path fill="#F15D56" d="M283.9,250.8c11.6-20.9,30.2-48.8,55.8-76.6c20.9-23.2,60.4-53.4,60.4-53.4c7-4.6,4.6-11.6-2.3-13.9
		l-48.8-23.2c-7-2.3-16.2,0-20.9,4.6c0,0-34.9,51.1-79,160.3C118.9,190.4-4.2,274-4.2,418c0,151,116.2,378.7,271.8,309
		c165,72,271.8-160.3,271.8-309C541.8,271.7,427.9,185.7,283.9,250.8L283.9,250.8z"/>
	<path fill="#F15D56" d="M283.9,250.8"/>
	<path fill="#7AC145" d="M253.7,202c7,0,13.9-7,13.9-13.9c0,0,4.6-58.1-37.2-99.9C191,46.4,132.9,51,132.9,51c-7,0-13.9,7-13.9,13.9
		c0,0-4.6,58.1,37.2,99.9C195.6,206.7,253.7,202,253.7,202L253.7,202z"/>
	<path fill="#F15D56" d="M253.7,202"/>
	<g>
		<path fill="#FFFFFF" d="M158.4,292.6c0,0,4.6,0,9.3,2.3c2.3,2.3,7,2.3,11.6,2.3s9.3,2.3,13.9,2.3s11.6,0,16.2,2.3
			c4.6,0,11.6,0,18.6,2.3c13.9,0,25.5,0,39.5,0c27.9,0,55.8-2.3,76.6-4.6c4.6,0,9.3-2.3,13.9-2.3c4.6,0,7-2.3,11.6-2.3
			c7-2.3,9.3-2.3,9.3-2.3s-2.3,2.3-7,9.3c-4.6,4.6-11.6,11.6-23.2,16.2c-9.3,4.6-23.2,11.6-37.2,13.9c-13.9,4.6-30.2,4.6-44.2,7
			c-30.2,0-60.4-7-81.3-18.6c-9.3-4.6-18.6-13.9-23.2-18.6C160.7,294.9,158.4,292.6,158.4,292.6z"/>
	</g>
</g>
</svg>
