<?xml version="1.0" encoding="utf-8"?>
<!-- Generator: Adobe Illustrator 18.1.1, SVG Export Plug-In . SVG Version: 6.00 Build 0)  -->
<svg version="1.1" id="Layer_1" xmlns="http://www.w3.org/2000/svg" xmlns:xlink="http://www.w3.org/1999/xlink" x="0px" y="0px"
	 viewBox="0 0 30.8 31.2" enable-background="new 0 0 30.8 31.2" xml:space="preserve">
<g>
	<g>
		<path fill="#93693B" d="M30.4,4.4c-0.1,1.2-0.4,2.2-1.1,3.1c-0.6,0.8-0.6,1.6-0.4,2.5c0.4,1.3,0.8,2.6,1.2,3.9
			c0.9,3.1,0.6,6-1.1,8.7c-0.5,0.7-0.9,1.5-1.4,2.2c-0.9,1.2-1.4,2.3-0.9,3.8c0.3,0.8,0,1.8-0.8,2.3c-0.9,0.5-1.6,0.1-2.2-0.6
			c-0.5-0.5-1-0.7-1.7-0.4c-2.6,1.1-5.2,1.1-7.9,0.6c-2.7-0.5-5.2-1.8-7.8-2.7c-1-0.4-1.9-0.4-2.8,0.1c-0.5,0.3-1,0.5-1.5,0.6
			c-1.3,0.3-2.3-0.8-2-2.1c0.1-0.3,0.1-0.7,0.3-0.9c1-1.1,0.8-2.2,0.4-3.5C0,19.3,1.6,17,3.4,15c1.1-1.3,2.2-2.5,2.9-4.1
			c0.2-0.4,0.3-0.8-0.3-1.1c-1.7-0.9-2-1.6-1.7-3C4.6,5.6,6,4.3,7.3,4.2c1.7-0.1,2.9-0.9,4.3-1.8c1.3-0.8,2.6-2.3,4.5-1.7
			c0.4,0.1,0.9-0.1,1.3-0.3c1.1-0.4,2.1-0.6,3.1,0.3C20.7,0.8,21.1,1,21.4,1c1.4-0.3,2.5,0.5,3.6,1.3c0.5,0.4,0.9,0.5,1.6,0.1
			c1-0.6,1.9-0.1,2.8,0.3C30.2,3,30.4,3.8,30.4,4.4z"/>
	</g>
	<path fill="#F9F8F7" d="M15.5,1.2c-0.8,0-1,1-2.3,2.2c-0.3,0.3-1,0.9-2,1.3C9.7,5.2,9.3,4.7,7.9,5.3C7.2,5.6,6.1,6,5.9,6.9
		C5.7,7.9,6.7,9,7.7,9.5c1.2,0.6,1.8,0,3.7,0.4c1.8,0.4,1.8,1.1,3.2,1.2c1.6,0.1,1.9-0.7,3.9-1c2-0.3,2.1,0.5,4.1,0.3
		c0.4,0,3.7-0.3,5.4-2.8c0.6-0.9,1.3-2.5,0.7-3.4c-0.4-0.5-0.9-0.2-3.2-1c-0.9-0.3-1.6-0.5-2.5-1.1c-0.5-0.3-0.5-0.4-0.8-0.5
		c-1.1-0.4-1.7,0.4-2.7,0C18.8,1.5,18.8,1,18.2,1c-0.6,0-0.8,0.5-1.5,0.6C16.1,1.6,16,1.2,15.5,1.2z"/>
	<circle fill="#B3B3B3" cx="12.2" cy="7.5" r="1"/>
	<circle fill="#B3B3B3" cx="13.7" cy="5.1" r="0.3"/>
	<circle fill="#B3B3B3" cx="16.2" cy="4.2" r="1"/>
	<circle fill="#B3B3B3" cx="16.2" cy="6.8" r="0.5"/>
	<circle fill="#B3B3B3" cx="19.7" cy="6.4" r="1"/>
	<circle fill="#B3B3B3" cx="18.3" cy="4.6" r="0.2"/>
	<circle fill="#B3B3B3" cx="18.1" cy="9.2" r="0.4"/>
	<circle fill="#B3B3B3" cx="15" cy="9.1" r="0.6"/>
	<circle fill="#B3B3B3" cx="10.3" cy="6.1" r="0.4"/>
	<circle fill="#B3B3B3" cx="22.3" cy="8.5" r="0.7"/>
	<circle fill="#B3B3B3" cx="22.2" cy="6.1" r="0.4"/>
	<circle fill="#B3B3B3" cx="21.5" cy="4.1" r="0.6"/>
	<circle fill="#B3B3B3" cx="20" cy="3.2" r="0.3"/>
	<circle fill="#B3B3B3" cx="24" cy="4.9" r="1"/>
	<circle fill="#B3B3B3" cx="24.4" cy="7.4" r="0.4"/>
	<circle fill="#B3B3B3" cx="26.4" cy="6.6" r="0.8"/>
	<circle fill="#B3B3B3" cx="9.4" cy="7.9" r="0.6"/>
	<circle fill="#B3B3B3" cx="8.7" cy="6.6" r="0.2"/>
</g>
</svg>
