<?xml version="1.0" encoding="utf-8"?>
<!-- Generator: Adobe Illustrator 18.1.1, SVG Export Plug-In . SVG Version: 6.00 Build 0)  -->
<svg version="1.1" id="Layer_1" xmlns="http://www.w3.org/2000/svg" xmlns:xlink="http://www.w3.org/1999/xlink" x="0px" y="0px"
	 viewBox="0 0 22.9 30.9" enable-background="new 0 0 22.9 30.9" xml:space="preserve">
<g>
	<path fill="#80C048" d="M7.7,20.2c-3.2,5.4-2.4,8.4-1.8,10.7l0.3-1.3c0,0-0.6-4.1,1.5-8.6S7.7,20.2,7.7,20.2z"/>
	<g>
		<path fill="#80C048" d="M3.1,1.4C3.1,1.5,3.1,1.5,3.1,1.4c1,1.3,3.9,5.4,3.2,10.5c-0.1,1-0.4,1.9-0.8,2.8c0-1.2-0.1-2.4-0.2-3.8
			C5,7.5,4,4.6,3.1,2.4L2.9,1.8C-1.6,9-1.5,16.1,7.7,20.5C12.7,13.6,12.3,4.6,3.1,1.4z"/>
		<path fill="#80C048" d="M2.7,1l0.2,0.8C3,1.7,3.1,1.6,3.1,1.5C3,1.3,2.9,1.2,2.7,1z"/>
	</g>
	<g>
		<path fill="#80C048" d="M15.7,17.6c-2,0.5-3.7,1.1-5,1.7c0.7-0.6,1.7-1.3,2.9-1.9c3.9-1.8,7.6-1,9.1-0.6
			c-5.8-3.6-11.5-3.6-14.9,3.8c5.5,3.8,12.5,3.4,14.9-3.7C21,16.9,18.5,17,15.7,17.6z"/>
		<path fill="#80C048" d="M22.8,16.8C22.8,16.9,22.8,16.9,22.8,16.8C22.8,16.9,22.8,16.9,22.8,16.8C23,16.9,22.9,16.9,22.8,16.8z"/>
	</g>
</g>
</svg>
