<?xml version="1.0" encoding="utf-8"?>
<!-- Generator: Adobe Illustrator 18.1.1, SVG Export Plug-In . SVG Version: 6.00 Build 0)  -->
<svg version="1.1" id="Layer_1" xmlns="http://www.w3.org/2000/svg" xmlns:xlink="http://www.w3.org/1999/xlink" x="0px" y="0px"
	 viewBox="0 0 32.6 30.8" enable-background="new 0 0 32.6 30.8" xml:space="preserve">
<g>
	<path fill="#8EC73F" d="M1.2,8.7c-2.5,7.6-1.1,15.2,3.7,19.1c1.1,0.9,3.1,2.2,6.4,2.6c-2.3-5.2-4.6-10.4-7-15.6
		c2.5,4.3,5,8.7,7.5,13c-0.3-0.9-0.5-1.8-0.7-2.8c-0.8-3.9-0.5-7.3,0-9.9c-0.6-0.6-1.3-1.1-2-1.7C6.4,11.2,3.6,9.7,1.2,8.7z"/>
	<path fill="#8EC73F" d="M13.6,29c-0.6-1.3-1.3-3.1-1.6-5.2c-0.8-5.2,1-9.4,1.9-11.3c0,0,4.1-6.3,17.6-12.5c0,0,7.2,29.3-16.3,30.8
		L26.8,8.7C22.4,15.4,18,22.2,13.6,29z"/>
</g>
</svg>
