<?xml version="1.0" encoding="utf-8"?>
<!-- Generator: Adobe Illustrator 19.0.1, SVG Export Plug-In . SVG Version: 6.00 Build 0)  -->
<svg version="1.1" id="Layer_1" xmlns="http://www.w3.org/2000/svg" xmlns:xlink="http://www.w3.org/1999/xlink" x="0px" y="0px"
	 viewBox="0 0 16.2 18.5" enable-background="new 0 0 16.2 18.5" xml:space="preserve">
<g>
	<g>
		<path fill="#C43A39" d="M16.1,14.4c-0.2-0.6-0.5-1.1-1-1.4c-0.7,0.8-1.8,1.3-3,1.3c-0.1,0-0.2,0-0.3,0c0.1,0.2,0.1,0.4,0.1,0.7
			c0,0.6-0.2,1.1-0.4,1.7c-0.1,0.1-0.1,0.2-0.2,0.2c-0.1,0.1-0.1,0.2-0.2,0.2c-0.1,0.2-0.2,0.3-0.4,0.4c0.6,0.5,1.4,0.9,2.3,0.9l0,0
			c0.1,0,0.2,0,0.2,0c0.1,0,0.1,0,0.1,0c0.1,0,0.1,0,0.2,0s0.1,0,0.1,0c0.1,0,0.1,0,0.2-0.1c1.4-0.4,2.4-1.6,2.4-3
			c0-0.1,0-0.2,0-0.4s0-0.2-0.1-0.3C16.1,14.6,16.1,14.5,16.1,14.4L16.1,14.4z"/>
		<path fill="#C43A39" d="M16.1,14.4"/>
		<path fill="#C43A39" d="M11.1,14.2c-0.4-0.1-0.7-0.2-1-0.4c-0.1-0.1-0.2-0.1-0.2-0.1c-0.1-0.1-0.2-0.1-0.2-0.2
			c-0.5-0.4-1-1-1.2-1.6c-0.2,0-0.3-0.1-0.5-0.1c-0.8,0-1.7,0.3-2.2,0.8c-0.1,0.1-0.4,0.3-0.5,0.5c-0.2,0.3-0.3,0.5-0.4,0.7
			c-0.1,0.1-0.1,0.3-0.1,0.5c0,0.1-0.1,0.3-0.1,0.5c0,0.5,0.2,1.1,0.4,1.5c0.1,0.1,0.1,0.2,0.2,0.3c0.1,0.1,0.2,0.2,0.3,0.4
			C6,17.4,6.5,17.7,7,17.9h0.1c0.1,0,0.2,0.1,0.3,0.1c0.1,0,0.1,0,0.1,0c0.1,0,0.2,0,0.3,0c0.1,0,0.1,0,0.1,0l0,0
			c0.7,0,1.3-0.2,1.9-0.5c0.1-0.1,0.2-0.1,0.2-0.2c0.1-0.1,0.2-0.1,0.2-0.2l0.1-0.1c0.1-0.1,0.2-0.2,0.2-0.3
			c0.1-0.1,0.1-0.2,0.2-0.2c0.3-0.5,0.4-1,0.4-1C11.2,14.9,11.2,14.4,11.1,14.2z"/>
		<path fill="#C43A39" d="M7,17.9"/>
		<path fill="#C43A39" d="M14.5,12.7c0.1-0.1,0.1-0.1,0.2-0.2c0.1-0.1,0.1-0.2,0.2-0.2c0.3-0.5,0.4-1,0.4-1.6c0-1.7-1.4-3.1-3.3-3.1
			s-3.3,1.4-3.3,3.1c0,0.2,0.1,0.5,0.1,0.8c0,0.1,0.1,0.2,0.1,0.3c0.1,0.1,0.1,0.2,0.2,0.4c0.2,0.4,0.5,0.7,0.8,1
			c0.1,0.1,0.2,0.1,0.2,0.2c0.1,0.1,0.2,0.1,0.2,0.2c0.1,0.1,0.2,0.1,0.4,0.1c0.1,0.1,0.2,0.1,0.4,0.1c0.1,0,0.2,0.1,0.4,0.1
			c0.2,0,0.3,0.1,0.5,0.1C13,13.8,13.9,13.3,14.5,12.7L14.5,12.7z"/>
		<path fill="#C43A39" d="M14.5,12.7"/>
		<path fill="#C43A39" d="M7.3,5.1"/>
	</g>
	<g>
		<path fill="#60A544" d="M0,9.1c0.2,0.5,0.8,1.6,2.2,2.4c1.1,0.7,2.2,0.9,2.8,0.9c0.2-0.2,0.5-0.5,1-0.7c0.5-0.2,1-0.3,1.3-0.3
			c0.1-0.1,0.2-0.2,0.3-0.3c-1.8-0.5-3.6-1-5.4-1.5l5.4,1.3c-0.5-0.1-1-0.4-1.6-0.7C4.8,9.5,4,8.7,3.6,8.1C3.3,8.1,3,8.1,2.7,8.2
			C1.7,8.4,0.7,8.7,0,9.1z"/>
		<path fill="#8FC741" d="M7.8,10.6c0,0-3.7-1.1-4.2-3.7c0,0-0.7-2.3,0.7-6.8c2.4,1.3,3.4,2.8,3.8,3.4c0.7,1.3,1.4,3.3,1.5,3.5
			c0.1,0.3,0.2,0.6,0.2,0.8C9.6,7.8,8.8,8.3,8.5,9.3C8.4,9.5,8.4,9.8,8.4,10c-0.1,0.2-0.1,0.5-0.1,0.7c-1-2.6-1.9-5.1-3-7.7
			L7.8,10.6z"/>
	</g>
</g>
</svg>
