<?xml version="1.0" encoding="utf-8"?>
<!-- Generator: Adobe Illustrator 19.0.1, SVG Export Plug-In . SVG Version: 6.00 Build 0)  -->
<svg version="1.1" id="Layer_1" xmlns="http://www.w3.org/2000/svg" xmlns:xlink="http://www.w3.org/1999/xlink" x="0px" y="0px"
	 viewBox="0 0 22.4 32.5" enable-background="new 0 0 22.4 32.5" xml:space="preserve">
<g>
	<g>
		<g>
			<g>
				<path fill="#60A544" d="M17.8,18.7c0,0,0.1-0.1,0.2-0.1c0,0,0.1-0.1,0.1-0.1c0,0,0-0.1,0.1-0.1c0,0,0,0,0,0c0.1,0,0.3,1,0.3,1.1
					c0,0.2,0.2,0.7,0.3,0.7c0.1,0,0.1-0.2,0.2-0.2c0.1,0,0.2,0.3,0.2,0.6c0.1,0.3,0.2,1.1,0.4,1.1c0.1,0,0.1-0.1,0.1-0.1
					c0.1,0,0.2,0.4,0.2,0.8c0,0.4-0.1,2.3-1.4,3.5c-0.8,0.7-1.7,1.3-1.7,1.3c-0.6,0.4-1.3,0.6-1.6,0.7c-0.1,0.1-0.3,0.2-0.4,0.3
					c-0.3,0.4-0.9,1-1.9,1.6c-1.6,0.9-3.1,0.7-4.3,0.4c-2-0.5-3.4-2-3.3-2.2c0,0,0.2,0.1,0.3,0c0.1-0.1-0.3-0.5-0.9-1.2
					c-0.7-0.8-1.1-1.4-1-1.5c0.1-0.1,0.3,0.1,0.3,0c0.1-0.1-0.1-0.3-0.6-0.8c-0.3-0.4-0.6-0.8-1-1.7c-0.3-0.8-0.8-1.5-1.1-2.3
					C1.3,20,1.1,19.7,1,19.5c-0.1-0.1-0.1-0.2-0.1-0.2c0-0.1-0.1-0.1,0-0.2C1.1,19,1.1,19,1,18.7c-0.2-0.4-0.2-0.7-0.3-1.1
					c-0.2-0.9-0.5-1.8-0.6-2.6c0-0.2-0.1-0.4,0-0.5c0-0.2,0-0.2,0.2-0.1c0,0,0,0,0.1,0c0.1,0.1,0.2,0,0.2-0.2c0-0.1,0-0.1,0-0.1
					c-0.1-0.4-0.2-0.7-0.1-1.1c0,0,0,0,0-0.1c0-0.8-0.2-1.8-0.3-2.7c0-0.1,0-0.3,0-0.4c0-0.1,0-0.2,0.1-0.1C0.2,9.9,0.3,9.9,0.3,10
					c0.2,0.1,0.3,0.1,0.3-0.3c0-0.3,0-0.6,0-0.8c0.1-0.7,0.1-1.6,0.1-2.4c0-0.2,0-0.3,0.2-0.1c0.1,0.1,0.1,0.1,0.1,0.1
					c0.1,0.1,0.2,0,0.2-0.2c0-0.1,0-0.2,0-0.3c0-0.2,0-0.5,0.1-0.6c0,0,0-0.1,0-0.2c0-0.3,0.1-0.5,0.2-0.7C1.6,4.2,1.8,3.5,1.9,3
					c0-0.1,0-0.2,0.1,0c0.2,0.3,0.2,0.3,0.3-0.1c0.1-0.6,0.2-1.2,0.4-1.6c0.1-0.4,0.4-0.9,0.5-1.2C3.2,0,3.3,0,3.3,0
					c0.1,0.1,0.3,0.4,0.4,0.6C3.9,1,4.3,1.6,4.6,2c0.1,0.2,0.2,0.3,0.3,0.5C5.2,2.7,5.3,3,5.6,3.4c0.2,0.3,0.2,0.3,0.3,0.2
					C5.9,3.5,6,3.5,6.2,3.7c0.2,0.3,0.5,0.7,0.7,1c0.4,0.5,0.9,1.1,1.3,1.6c0.1,0.2,0.3,0.4,0.4,0.6C8.8,7.3,8.8,7.3,9,7.1
					c0.1,0,0.1-0.1,0.2,0.1c0.1,0.2,0.2,0.3,0.3,0.4c0.4,0.5,0.8,1,1.2,1.5c0.1,0.2,0.2,0.2,0.3,0.1c0-0.1,0.1-0.1,0.1-0.1
					c0.1-0.1,0.2-0.1,0.3,0.2c0.3,0.6,0.8,1.2,1.1,1.8c0.1,0.2,0.2,0.2,0.3,0.2c0.2,0,0.2,0.1,0.3,0.2c0.1,0.4,0.4,0.8,0.6,1.1
					c0,0.1,0.1,0.1,0.2,0.1c0.1,0,0.1-0.1,0.2-0.1c0.1,0,0.2-0.1,0.2,0.1c0.1,0.2,0.2,0.4,0.4,0.7c0.3,0.4,0.6,0.9,0.8,1.3
					c0.1,0.2,0.3,0.5,0.4,0.6c0.1,0.1,0.2,0.2,0.4,0.1c0,0,0,0,0.1,0c0.1,0,0.2,0,0.2,0.1c0,0,0.1,0.1,0,0.1c0,0.1,0.1,0.2,0.1,0.4
					c0.1,0.5,0.1,0.8,0.2,0.8c0.1,0,0.1-0.1,0.2-0.1c0.2,0,0.4,0.8,0.5,1C17.7,18.2,17.7,18.7,17.8,18.7z"/>
			</g>
		</g>
	</g>
	<path fill="#81C046" d="M6.6,7.6c0,1.4-0.7,2.6-1.6,2.9C4.1,10.7,3.2,10,2.7,8.7c0.5,1.2,1.5,1.8,2.3,1.5C5.9,10,6.5,8.9,6.6,7.6z"
		/>
	<path fill="#81C046" d="M5.5,6.1c0.1,1-0.3,1.9-1,2.1C3.7,8.3,2.9,7.7,2.4,6.8c0.5,0.9,1.4,1.3,2,1.2C5.1,7.8,5.5,7,5.5,6.1z"/>
	<path fill="#81C046" d="M8,9.3c0,2-0.7,3.7-1.8,4.1C5.1,13.9,4,13,3.4,11.3c0.7,1.6,1.8,2.3,2.9,1.8C7.2,12.6,7.9,11.1,8,9.3z"/>
	<path fill="#81C046" d="M9.5,11.6c0,1.9-0.6,3.6-1.7,4.2C6.5,16.6,5,16,4.1,14.4c1,1.4,2.3,1.8,3.5,1.1C8.7,14.9,9.4,13.3,9.5,11.6
		z"/>
	<path fill="#81C046" d="M11.6,12.8c0.2,2.5-0.7,4.8-2.1,5.8c-1.6,1.1-3.6,0.5-4.9-1.6c1.4,1.8,3.2,2.3,4.7,1.2
		C10.7,17.2,11.6,15.2,11.6,12.8z"/>
	<path fill="#81C046" d="M13.9,14.1c0.3,3.2-0.7,6.2-2.4,7.6c-1.9,1.6-4.4,0.9-6.1-1.6c1.7,2.1,4,2.6,5.8,1.1
		C12.9,19.9,13.9,17.1,13.9,14.1z"/>
	<path fill="#81C046" d="M15.9,18c0.3,3-0.7,5.8-2.5,7.1c-2,1.4-4.5,0.8-6.2-1.7c1.8,2.1,4.1,2.6,6,1.2C14.9,23.4,15.9,20.9,15.9,18
		z"/>
	<g>
		<path fill="#81C046" d="M6.1,12.9c1.1,2.4,2.6,5.1,4.7,8c4.2,6,8.7,9.4,11.7,11.4c-0.3,0-0.7-0.1-1.2,0c-0.3,0-0.5,0.1-0.7,0.2
			c-2.3-1.6-6.2-4.6-9.7-9.9C8.4,18.9,6.9,15.4,6.1,12.9z"/>
		<path fill="#FFFFFF" d="M4.1,6.2c1.2,4.8,2.7,8.1,3.7,9.9c0.4,0.7,2.4,4.5,3.5,5.8c0,0,0.3,0.5,1.7,2.5c0.2,0.2-2.3-2-4.2-5.2
			c0,0-0.5-0.8-0.9-1.6C5.8,13.7,4.6,8.5,4.1,6.2z"/>
	</g>
</g>
</svg>
